# xmcd
#
# Track frame offsets:
#	150
#	19041
#	35224
#	50866
#	65728
#	83547
#	100243
#	115278
#	130221
#	148567
#	162223
#
# Disc length: 2386 seconds
#
# Revision: 0
# Processed by: cddbd v1.5.2PL0 Copyright (c) Steve Scherf et al.
# Submitted via: audiograbber 1.83.01
#
DISCID=9a09500b
DTITLE=Josh_Turner - Long_Black_Train
DYEAR=2003
DGENRE=country
TTITLE0=Long Black Train
TTITLE1=In My Dreams
TTITLE2=What It Ain't
TTITLE3=I Had One One Time
TTITLE4=Jacksonville
TTITLE5=Backwoods Boy
TTITLE6=Unburn All Our Bridges
TTITLE7=You Don't Mess Around With Jim
TTITLE8=She'll Go On You
TTITLE9=Good Woman Bad
TTITLE10=The Difference Between A Woman And A Man
EXTD=
EXTT0=
EXTT1=
EXTT2=
EXTT3=
EXTT4=
EXTT5=
EXTT6=
EXTT7=
EXTT8=
EXTT9=
EXTT10=
PLAYORDER=
